:SAMPLES-PER-SECOND 24
:FULLY-SPECIFIED
:DEGREES
613
root  5.67159 38.0082 28.3829 5.53296 -56.5599 1.44675
RightUpLeg  -9.38064 5.39637 -13.9556
RightLeg  30.1852 -6.97325 -4.60459
RightFoot  -18.4078 0.76927 14.4413
RightToes  -2.08645e-008 3.77894e-005 6.81332e-007
Spine  -1.71294 0.0970738 0.242197
Spine1  6.6322 0.0874416 -0.400819
HEad  -35.6628 31.3165 -16.0332
LeftShoulder1  7.64851 -13.3569 -39.2042
LeftArm  -0.912242 18.4835 -24.2218
LeftForeArm  174.993 -67.8026 -156.715
LeftHand  -0.726854 -0.139797 15.3279
RightShoulder  3.75562 6.34519 32.2476
RightArm  11.2759 -24.9687 29.7475
RightForeArm  153.642 74.7708 141.955
RightHand  -0.946279 8.75309 -8.1205
LeftUpLeg  -14.0628 -10.0641 10.0087
LeftLeg  28.8024 10.8343 6.71413
LeftFoot  -14.4844 -0.398622 -17.5379
LeftToes  1.24767e-006 1.47042e-008 1.32732e-009
614
root  5.68141 38.9612 28.9745 5.84521 -56.6912 1.99176
RightUpLeg  -8.60593 6.56248 -14.5849
RightLeg  26.4318 -9.25697 -5.1923
RightFoot  -11.5222 -0.0541802 15.4382
RightToes  -2.08645e-008 3.77894e-005 6.81332e-007
Spine  -3.7355 0.14501 -0.245712
Spine1  6.94119 -0.0106376 0.426046
HEad  -33.957 31.9249 -15.9051
LeftShoulder1  7.45877 -13.1673 -38.6091
LeftArm  -2.18021 21.5625 -28.9771
LeftForeArm  174.12 -66.8756 -157.6
LeftHand  -0.710469 0.144841 15.7745
RightShoulder  3.82486 6.45107 32.5382
RightArm  11.8016 -28.0556 30.9732
RightForeArm  151.814 74.9065 141.264
RightHand  -0.9974 8.3687 -8.75941
LeftUpLeg  -12.0813 -9.02805 8.9211
LeftLeg  23.2502 10.612 5.28831
LeftFoot  -9.32377 0.358446 -17.0949
LeftToes  1.24767e-006 1.47042e-008 1.32732e-009
615
root  5.5903 40.325 29.476 7.20825 -57.0527 2.20364
RightUpLeg  -8.87569 5.7467 -14.8595
RightLeg  22.0077 -10.8444 -4.99229
RightFoot  -1.0125 -1.18706 13.0415
RightToes  -2.08645e-008 3.77894e-005 6.81332e-007
Spine  -5.79277 0.0174616 -0.974504
Spine1  5.89992 -0.339921 1.75926
HEad  -30.8353 33.7334 -15.5398
LeftShoulder1  7.11653 -12.8139 -37.5264
LeftArm  -2.23845 26.7354 -33.2579
LeftForeArm  172.013 -64.4958 -159.617
LeftHand  -0.691017 0.181196 15.4536
RightShoulder  3.85489 6.5224 32.5638
RightArm  13.6179 -31.163 31.9678
RightForeArm  150.376 74.6984 141.527
RightHand  -0.963104 8.2092 -8.564
LeftUpLeg  -10.5757 -3.18704 8.59422
LeftLeg  16.0071 5.60952 2.36462
LeftFoot  -0.130648 1.74523 -17.5462
LeftToes  1.24767e-006 1.47042e-008 1.32732e-009
616
root  5.56723 41.3513 29.809 8.8501 -57.248 1.58276
RightUpLeg  -9.23376 1.73245 -14.1767
RightLeg  18.4916 -9.40089 -3.82381
RightFoot  4.73633 -1.6541 11.8303
RightToes  -2.08645e-008 3.77894e-005 6.81332e-007
Spine  -7.02019 0.0122465 -0.125102
Spine1  5.42734 -0.27807 1.29818
HEad  -30.0029 34.6738 -15.8997
LeftShoulder1  7.06266 -12.8028 -37.2345
LeftArm  -1.35135 29.8002 -33.4692
LeftForeArm  172.567 -61.796 -161.814
LeftHand  -0.655191 -0.155831 13.7938
RightShoulder  3.9661 6.67767 33.0679
RightArm  14.5975 -33.0204 32.3617
RightForeArm  152.246 73.8341 143.939
RightHand  -0.7756 8.42593 -6.87462
LeftUpLeg  -10.4198 2.80515 9.00573
LeftLeg  12.3435 -1.88452 0.208317
LeftFoot  8.06675 3.2421 -19.0994
LeftToes  1.24767e-006 1.47042e-008 1.32732e-009
617
root  5.70092 41.7362 30.0356 10.1638 -57.4459 -0.175751
RightUpLeg  -8.44929 -2.43992 -12.4627
RightLeg  15.5145 -4.51577 -2.33389
RightFoot  3.91996 -1.90488 14.3801
RightToes  -2.08645e-008 3.77894e-005 6.81332e-007
Spine  -5.90285 0.133372 2.30629
Spine1  4.95177 0.0628194 -0.458827
HEad  -31.3873 34.6841 -16.9823
LeftShoulder1  7.15374 -12.959 -37.3737
LeftArm  0.0509801 29.897 -31.2302
LeftForeArm  174.708 -59.911 -163.302
LeftHand  -0.604245 -0.130135 12.7887
RightShoulder  4.07896 6.83587 33.5626
RightArm  15.3017 -32.5209 32.5195
RightForeArm  153.899 73.2709 145.453
RightHand  -0.680975 8.40624 -6.09151
LeftUpLeg  -10.5829 1.82756 10.1925
LeftLeg  12.0736 -2.12482 0.43721
LeftFoot  10.4737 3.25615 -17.1433
LeftToes  1.24767e-006 1.47042e-008 1.32732e-009
618
root  5.8558 41.5338 30.1767 10.8157 -57.9371 -1.12967
RightUpLeg  -8.35857 -2.1357 -11.2956
RightLeg  14.1784 -1.06619 -1.58263
RightFoot  2.11047 -1.88131 15.9806
RightToes  -2.08645e-008 3.77894e-005 6.81332e-007
Spine  -3.97691 0.268975 2.80439
Spine1  3.71319 0.282553 -0.961949
HEad  -32.4062 34.6518 -17.3765
LeftShoulder1  6.81476 -12.6373 -36.1746
LeftArm  1.40688 28.3382 -30.5775
LeftForeArm  175.636 -59.7775 -163.472
LeftHand  -0.578275 -0.0223515 12.4789
RightShoulder  4.04714 6.83329 33.2655
RightArm  16.6471 -30.6899 32.2624
RightForeArm  154.903 72.9297 146.315
RightHand  -0.745339 8.05431 -6.78861
LeftUpLeg  -11.3609 -1.05101 10.7998
LeftLeg  12.4589 4.27559 2.60019
LeftFoot  9.45257 2.24133 -12.4925
LeftToes  1.24767e-006 1.47042e-008 1.32732e-009
619
root  5.93429 40.7233 30.2564 10.363 -58.5744 0.140198
RightUpLeg  -10.0096 1.85099 -11.7671
RightLeg  16.3982 -3.77261 -1.95497
RightFoot  -1.79183 -1.1835 13.8343
RightToes  -2.08645e-008 3.77894e-005 6.81332e-007
Spine  -3.16936 0.475363 0.295522
Spine1  2.47287 0.373801 0.267499
HEad  -32.3187 34.8091 -16.535
LeftShoulder1  6.26711 -12.0839 -34.2033
LeftArm  2.27706 25.5583 -30.7533
LeftForeArm  174.691 -61.2708 -162.391
LeftHand  -0.583829 -0.370295 11.8658
RightShoulder  3.94208 6.74876 32.5636
RightArm  17.6715 -28.3721 31.7558
RightForeArm  153.965 73.0651 145.896
RightHand  -0.813705 8.15829 -7.32372
LeftUpLeg  -12.8498 -1.57905 10.5298
LeftLeg  13.6862 8.97918 3.81725
LeftFoot  5.42457 1.89383 -13.173
LeftToes  1.24767e-006 1.47042e-008 1.32732e-009
620
root  6.09513 39.4798 30.3855 8.82153 -58.6054 1.68118
RightUpLeg  -10.6092 3.387 -12.689
RightLeg  19.9527 -7.32495 -3.10171
RightFoot  -9.94771 -0.208376 11.2416
RightToes  -2.08645e-008 3.77894e-005 6.81332e-007
Spine  -2.48195 0.371769 -1.17223
Spine1  2.95228 0.267026 0.553667
HEad  -32.7559 35.0303 -16.1772
LeftShoulder1  6.33247 -12.1428 -34.4609
LeftArm  2.1759 19.733 -28.1866
LeftForeArm  172.223 -64.195 -159.899
LeftHand  -0.633628 -0.54455 12.5004
RightShoulder  3.81513 6.60936 31.8347
RightArm  16.6259 -24.3277 32.7328
RightForeArm  147.456 75.4467 138.83
RightHand  -0.849574 8.66325 -7.37631
LeftUpLeg  -14.1189 -2.71265 10.1133
LeftLeg  18.164 9.53628 3.9467
LeftFoot  -3.60614 1.18137 -17.1955
LeftToes  1.24767e-006 1.47042e-008 1.32732e-009
621
root  6.4189 38.4767 30.6568 7.6687 -57.6044 1.27795
RightUpLeg  -9.59308 3.03085 -12.8649
RightLeg  22.7195 -8.2432 -3.98277
RightFoot  -16.4058 0.384305 11.0934
RightToes  -2.08645e-008 3.77894e-005 6.81332e-007
Spine  -1.46404 -0.0844364 0.858525
Spine1  5.40703 0.00469939 -0.922587
HEad  -34.5619 35.0068 -17.4638
LeftShoulder1  7.00178 -12.7571 -36.9825
LeftArm  1.16103 12.1292 -24.7106
LeftForeArm  168.621 -68.3178 -155.323
LeftHand  -0.690927 -0.286027 14.2186
RightShoulder  3.74651 6.4614 31.7076
RightArm  12.9963 -20.7327 34.5155
RightForeArm  136.12 78.4324 124.587
RightHand  -0.855765 8.78319 -7.36905
LeftUpLeg  -15.4953 -6.12721 9.75205
LeftLeg  24.8962 10.8065 5.76459
LeftFoot  -11.5467 0.0489108 -16.9015
LeftToes  1.24767e-006 1.47042e-008 1.32732e-009
